<svg width="40" height="40" viewBox="0 0 40 40" fill="none" xmlns="http://www.w3.org/2000/svg">
<rect width="40" height="40" rx="4" fill="#EBF0FF"/>
<path d="M17.5065 25.064V23.688H20.7705C21.3998 23.688 21.8852 23.512 22.2265 23.16C22.5785 22.7973 22.7545 22.3173 22.7545 21.72C22.7545 21.112 22.5838 20.6373 22.2425 20.296C21.9012 19.944 21.4105 19.768 20.7705 19.768H17.5065V18.744H20.5465C21.2932 18.744 21.9492 18.8347 22.5145 19.016C23.0905 19.1973 23.5385 19.5013 23.8585 19.928C24.1892 20.344 24.3545 20.9147 24.3545 21.64V21.864C24.3545 22.5467 24.2158 23.128 23.9385 23.608C23.6612 24.0773 23.2398 24.44 22.6745 24.696C22.1092 24.9413 21.3998 25.064 20.5465 25.064H17.5065ZM16.2585 25.064V13.256H17.8265V25.064H16.2585ZM17.5065 19.48V18.456H20.3385C20.9998 18.456 21.4852 18.28 21.7945 17.928C22.1145 17.5653 22.2745 17.1067 22.2745 16.552C22.2745 15.9867 22.1145 15.528 21.7945 15.176C21.4852 14.8133 20.9998 14.632 20.3385 14.632H17.5065V13.256H20.0665C21.3465 13.256 22.3012 13.528 22.9305 14.072C23.5598 14.6053 23.8745 15.3787 23.8745 16.392V16.616C23.8745 17.3307 23.7145 17.9013 23.3945 18.328C23.0745 18.744 22.6265 19.0427 22.0505 19.224C21.4852 19.3947 20.8238 19.48 20.0665 19.48H17.5065Z" fill="#5569B0"/>
</svg>
