<svg width="40" height="40" viewBox="0 0 40 40" fill="none" xmlns="http://www.w3.org/2000/svg">
<rect width="40" height="40" rx="4" fill="#FFEDD2"/>
<path d="M20.4086 25.288C19.342 25.288 18.43 25.1013 17.6726 24.728C16.926 24.3547 16.3233 23.8693 15.8646 23.272C15.406 22.6747 15.07 22.0293 14.8566 21.336C14.6433 20.632 14.5366 19.9547 14.5366 19.304V18.952C14.5366 18.248 14.6433 17.544 14.8566 16.84C15.0806 16.136 15.422 15.496 15.8806 14.92C16.3393 14.344 16.9366 13.88 17.6726 13.528C18.4086 13.176 19.2886 13 20.3126 13C21.358 13 22.254 13.1813 23.0006 13.544C23.7473 13.9067 24.3393 14.4133 24.7766 15.064C25.214 15.7147 25.4806 16.4827 25.5766 17.368H23.9766C23.8913 16.7067 23.678 16.1627 23.3366 15.736C22.9953 15.2987 22.5633 14.9733 22.0406 14.76C21.5286 14.5467 20.9526 14.44 20.3126 14.44C19.6193 14.44 19.0113 14.5627 18.4886 14.808C17.966 15.0427 17.5286 15.3787 17.1766 15.816C16.8353 16.2427 16.574 16.7387 16.3926 17.304C16.222 17.8693 16.1366 18.4827 16.1366 19.144C16.1366 19.7733 16.222 20.3707 16.3926 20.936C16.574 21.5013 16.8406 22.0027 17.1926 22.44C17.5553 22.8773 18.0033 23.224 18.5366 23.48C19.07 23.7253 19.694 23.848 20.4086 23.848C21.4113 23.848 22.254 23.5973 22.9366 23.096C23.6193 22.5947 24.0353 21.8693 24.1846 20.92H25.7846C25.678 21.72 25.406 22.4507 24.9686 23.112C24.542 23.7733 23.9446 24.3013 23.1766 24.696C22.4193 25.0907 21.4966 25.288 20.4086 25.288Z" fill="#BD3900"/>
</svg>
