<svg width="40" height="40" viewBox="0 0 40 40" fill="none" xmlns="http://www.w3.org/2000/svg">
<rect width="40" height="40" rx="4" fill="#FDE1E8"/>
<path d="M16.6159 25.064V23.624H19.5279C20.2319 23.624 20.8559 23.512 21.3999 23.288C21.9545 23.0533 22.4239 22.7333 22.8079 22.328C23.2025 21.9227 23.5012 21.448 23.7039 20.904C23.9065 20.36 24.0079 19.7733 24.0079 19.144C24.0079 18.4827 23.9065 17.8853 23.7039 17.352C23.5012 16.808 23.2025 16.3387 22.8079 15.944C22.4239 15.5387 21.9545 15.2293 21.3999 15.016C20.8559 14.8027 20.2319 14.696 19.5279 14.696H16.6159V13.256H19.3679C20.4239 13.256 21.3412 13.4213 22.1199 13.752C22.8985 14.072 23.5439 14.5093 24.0559 15.064C24.5785 15.608 24.9679 16.2213 25.2239 16.904C25.4799 17.576 25.6079 18.264 25.6079 18.968V19.32C25.6079 20.0027 25.4799 20.6853 25.2239 21.368C24.9679 22.0507 24.5785 22.6693 24.0559 23.224C23.5439 23.7787 22.8985 24.2267 22.1199 24.568C21.3412 24.8987 20.4239 25.064 19.3679 25.064H16.6159ZM15.3679 25.064V13.256H16.9359V25.064H15.3679Z" fill="#BF0639"/>
</svg>
