<svg xmlns="http://www.w3.org/2000/svg" xmlns:xlink="http://www.w3.org/1999/xlink" width="500" zoomAndPan="magnify" viewBox="0 0 375 374.999991" height="500" preserveAspectRatio="xMidYMid meet" version="1.0"><rect x="-37.5" width="450" fill="#ffffff" y="-37.499999" height="449.999989" fill-opacity="1"/><rect x="-37.5" width="450" fill="#ffffff" y="-37.499999" height="449.999989" fill-opacity="1"/><path fill="#ee3663" d="M 375 187.5 C 375 291.050781 291.050781 375 187.5 375 C 83.945312 375 0 291.050781 0 187.5 C 0 83.945312 83.945312 0 187.5 0 C 291.050781 0 375 83.945312 375 187.5 " fill-opacity="1" fill-rule="nonzero"/><path fill="#ffffff" d="M 299.933594 264.753906 L 222.695312 187.601562 L 299.847656 110.363281 L 264.789062 75.34375 L 187.640625 152.582031 L 110.402344 75.429688 L 75.382812 110.488281 L 152.617188 187.640625 L 75.46875 264.878906 L 110.527344 299.898438 L 187.679688 222.660156 L 264.914062 299.808594 L 299.933594 264.753906 " fill-opacity="1" fill-rule="nonzero"/></svg>